<svg width="32" height="27" viewBox="0 0 32 27"  xmlns="http://www.w3.org/2000/svg">
<path d="M32 3.07843C30.8225 3.60056 29.5574 3.95349 28.2294 4.11218C29.5848 3.29968 30.6257 2.01312 31.116 0.479999C29.8473 1.23243 28.4424 1.77875 26.9469 2.07312C25.7494 0.797186 24.0431 0 22.1548 0C18.5292 0 15.5897 2.93931 15.5897 6.56492C15.5897 7.07949 15.6478 7.58055 15.7597 8.06111C10.3035 7.78723 5.46593 5.17361 2.22793 1.20156C1.66281 2.17118 1.339 3.29893 1.339 4.50212C1.339 6.77986 2.498 8.78936 4.25962 9.96667C3.18343 9.93254 2.17112 9.63723 1.28606 9.14548C1.28543 9.17286 1.28543 9.20036 1.28543 9.22804C1.28543 12.4089 3.54849 15.0623 6.55174 15.6655C6.00093 15.8155 5.42086 15.896 4.82211 15.896C4.39905 15.896 3.9878 15.8547 3.58687 15.778C4.42237 18.3861 6.84686 20.2845 9.71973 20.3373C7.47286 22.0983 4.64205 23.1477 1.56612 23.1477C1.03619 23.1477 0.513624 23.1167 0 23.0558C2.90537 24.9187 6.3563 26.0056 10.0638 26.0056C22.1395 26.0056 28.743 16.0017 28.743 7.32611C28.743 7.04149 28.7365 6.75836 28.7239 6.47674C30.0068 5.55118 31.1199 4.39493 32 3.07843Z" />
</svg>
