<?xml version="1.0" encoding="utf-8"?><svg width="17" height="32" xmlns="http://www.w3.org/2000/svg" viewBox="0 0 17 32"><path d="M.516 17.043h3.508v14.44c0 .286.23.517.516.517h5.947a.516.516 0 00.517-.516V17.11h4.032a.516.516 0 00.513-.457l.612-5.316a.516.516 0 00-.513-.575h-4.644V7.43c0-1.005.54-1.514 1.608-1.514h3.037a.516.516 0 00.516-.516V.52a.516.516 0 00-.516-.516h-4.186A4.1 4.1 0 0011.272 0c-.727 0-3.25.143-5.245 1.977C3.818 4.01 4.125 6.443 4.198 6.865v3.897H.517A.516.516 0 000 11.28v5.248c0 .285.231.516.516.516z"/></svg>