<?xml version="1.0" encoding="utf-8"?><svg width="32" height="32" xmlns="http://www.w3.org/2000/svg" viewBox="0 0 32 32"><path fill-rule="evenodd" clip-rule="evenodd" d="M22.705 0H9.295C4.17 0 0 4.17 0 9.296v13.409C0 27.83 4.17 32 9.295 32h13.41C27.83 32 32 27.83 32 22.705V9.295C32 4.17 27.83 0 22.705 0zM29.5 22.704a6.803 6.803 0 01-6.795 6.796H9.295A6.803 6.803 0 012.5 22.705V9.295A6.803 6.803 0 019.295 2.5h13.41A6.803 6.803 0 0129.5 9.296v13.409zM16 7.375c-4.756 0-8.625 3.87-8.625 8.625 0 4.756 3.87 8.625 8.625 8.625 4.756 0 8.625-3.87 8.625-8.625 0-4.756-3.87-8.625-8.625-8.625zm0 14.75A6.132 6.132 0 019.875 16 6.132 6.132 0 0116 9.875 6.132 6.132 0 0122.125 16 6.132 6.132 0 0116 22.125zM26 7.25a1.25 1.25 0 11-2.5 0 1.25 1.25 0 012.5 0z"/></svg>