<?xml version="1.0" encoding="utf-8"?><svg width="32" height="27" xmlns="http://www.w3.org/2000/svg" viewBox="0 0 32 27"><path d="M32 3.078a13.127 13.127 0 01-3.77 1.034A6.585 6.585 0 0031.115.48a13.143 13.143 0 01-4.17 1.593A6.556 6.556 0 0022.156 0a6.565 6.565 0 00-6.565 6.565c0 .514.058 1.016.17 1.496a18.639 18.639 0 01-13.532-6.86 6.534 6.534 0 00-.889 3.301 6.562 6.562 0 002.92 5.465 6.538 6.538 0 01-2.973-.822v.083a6.57 6.57 0 005.266 6.438 6.575 6.575 0 01-2.965.112 6.572 6.572 0 006.133 4.56 13.172 13.172 0 01-8.154 2.81c-.53 0-1.052-.031-1.566-.092a18.581 18.581 0 0010.064 2.95c12.076 0 18.679-10.004 18.679-18.68a19 19 0 00-.02-.85A13.337 13.337 0 0032 3.079z"/></svg>