<?xml version="1.0" encoding="utf-8"?><svg width="32" height="19" xmlns="http://www.w3.org/2000/svg" viewBox="0 0 32 19"><path d="M27.54 11.515c1.062 1.036 2.182 2.011 3.134 3.152.421.507.82 1.03 1.124 1.618.431.837.04 1.757-.71 1.807l-4.661-.002c-1.203.1-2.162-.384-2.968-1.206-.646-.658-1.244-1.357-1.864-2.037-.255-.278-.521-.54-.84-.746-.636-.413-1.188-.287-1.552.377-.37.675-.454 1.423-.49 2.175-.05 1.098-.382 1.387-1.485 1.437-2.356.111-4.593-.246-6.67-1.434-1.832-1.048-3.253-2.528-4.49-4.203C3.663 9.192 1.819 5.608.163 1.923c-.373-.83-.1-1.275.815-1.29C2.498.602 4.02.604 5.541.63c.618.009 1.028.364 1.266.947.823 2.024 1.83 3.949 3.094 5.733.336.475.68.95 1.168 1.284.54.37.952.248 1.207-.355.161-.381.232-.793.268-1.202.12-1.407.136-2.811-.075-4.214-.13-.875-.622-1.441-1.496-1.607-.445-.084-.379-.25-.163-.504.375-.439.727-.712 1.43-.712h5.268c.83.164 1.014.536 1.127 1.37l.005 5.853c-.01.323.161 1.282.743 1.496.466.152.773-.22 1.052-.516 1.262-1.339 2.162-2.92 2.966-4.56.357-.72.664-1.468.962-2.215.22-.555.566-.828 1.19-.816l5.072.005c.15 0 .302.002.448.027.854.145 1.088.513.824 1.347-.415 1.31-1.225 2.4-2.016 3.496-.845 1.17-1.75 2.3-2.588 3.477-.77 1.075-.71 1.617.248 2.55z"/></svg>