<?xml version="1.0" encoding="utf-8"?><svg viewBox="0 0 32 32" xmlns="http://www.w3.org/2000/svg" xmlns:xlink="http://www.w3.org/1999/xlink"><style>:root>svg{display:none}:root>svg:target{display:block}</style><svg viewBox="0 0 32 20" id="ico_arrow-down" xmlns="http://www.w3.org/2000/svg"><path fill-rule="evenodd" clip-rule="evenodd" d="M3.733.267L0 4l16 16L32 4 28.267.267 16 12.533 3.733.267z"/></svg><svg viewBox="0 0 20 32" id="ico_arrow-left" xmlns="http://www.w3.org/2000/svg"><path fill-rule="evenodd" clip-rule="evenodd" d="M19.733 3.733L16 0 0 16l16 16 3.733-3.733L7.467 16 19.733 3.733z"/></svg><svg viewBox="0 0 20 32" id="ico_arrow-right" xmlns="http://www.w3.org/2000/svg"><path fill-rule="evenodd" clip-rule="evenodd" d="M.267 28.267L4 32l16-16L4 0 .267 3.733 12.533 16 .267 28.267z"/></svg><svg fill="none" viewBox="0 0 32 20" id="ico_arrow-up" xmlns="http://www.w3.org/2000/svg"><path fill-rule="evenodd" clip-rule="evenodd" d="M28.267 19.733L32 16 16 0 0 16l3.733 3.733L16 7.467l12.267 12.266z" fill="#000"/></svg><svg fill="none" viewBox="0 0 32 32" id="ico_close" xmlns="http://www.w3.org/2000/svg"><path fill-rule="evenodd" clip-rule="evenodd" d="M32 3.2L28.8 0 16 12.8 3.2 0 0 3.2 12.8 16 0 28.8 3.2 32 16 19.2 28.8 32l3.2-3.2L19.2 16 32 3.2z" fill="#000"/></svg><svg fill="none" viewBox="0 0 16 14" id="ico_mail" xmlns="http://www.w3.org/2000/svg"><path d="M14.101.924H1.899C.852.924 0 1.742 0 2.748v8.505c0 1.005.852 1.823 1.9 1.823H14.1c1.047 0 1.899-.818 1.899-1.824V2.748c0-1.006-.852-1.824-1.899-1.824zm0 10.542H1.899c-.154 0-.289-.1-.289-.213v-7.38L7.13 8.53a.629.629 0 00.405.148h.932a.63.63 0 00.405-.148l5.519-4.659v7.38c0 .114-.135.214-.289.214zM8 7.081L2.632 2.534h10.736L8 7.08z" fill="#fff"/></svg><svg viewBox="0 0 17 32" id="ico_social-facebook" xmlns="http://www.w3.org/2000/svg"><path d="M.516 17.043h3.508v14.44c0 .286.23.517.516.517h5.947a.516.516 0 00.517-.516V17.11h4.032a.516.516 0 00.513-.457l.612-5.316a.516.516 0 00-.513-.575h-4.644V7.43c0-1.005.54-1.514 1.608-1.514h3.037a.516.516 0 00.516-.516V.52a.516.516 0 00-.516-.516h-4.186A4.1 4.1 0 0011.272 0c-.727 0-3.25.143-5.245 1.977C3.818 4.01 4.125 6.443 4.198 6.865v3.897H.517A.516.516 0 000 11.28v5.248c0 .285.231.516.516.516z"/></svg><svg viewBox="0 0 32 32" id="ico_social-instagram" xmlns="http://www.w3.org/2000/svg"><path fill-rule="evenodd" clip-rule="evenodd" d="M22.705 0H9.295C4.17 0 0 4.17 0 9.296v13.409C0 27.83 4.17 32 9.295 32h13.41C27.83 32 32 27.83 32 22.705V9.295C32 4.17 27.83 0 22.705 0zM29.5 22.704a6.803 6.803 0 01-6.795 6.796H9.295A6.803 6.803 0 012.5 22.705V9.295A6.803 6.803 0 019.295 2.5h13.41A6.803 6.803 0 0129.5 9.296v13.409zM16 7.375c-4.756 0-8.625 3.87-8.625 8.625 0 4.756 3.87 8.625 8.625 8.625 4.756 0 8.625-3.87 8.625-8.625 0-4.756-3.87-8.625-8.625-8.625zm0 14.75A6.132 6.132 0 019.875 16 6.132 6.132 0 0116 9.875 6.132 6.132 0 0122.125 16 6.132 6.132 0 0116 22.125zM26 7.25a1.25 1.25 0 11-2.5 0 1.25 1.25 0 012.5 0z"/></svg><svg viewBox="0 0 32 27" id="ico_social-twitter" xmlns="http://www.w3.org/2000/svg"><path d="M32 3.078a13.127 13.127 0 01-3.77 1.034A6.585 6.585 0 0031.115.48a13.143 13.143 0 01-4.17 1.593A6.556 6.556 0 0022.156 0a6.565 6.565 0 00-6.565 6.565c0 .514.058 1.016.17 1.496a18.639 18.639 0 01-13.532-6.86 6.534 6.534 0 00-.889 3.301 6.562 6.562 0 002.92 5.465 6.538 6.538 0 01-2.973-.822v.083a6.57 6.57 0 005.266 6.438 6.575 6.575 0 01-2.965.112 6.572 6.572 0 006.133 4.56 13.172 13.172 0 01-8.154 2.81c-.53 0-1.052-.031-1.566-.092a18.581 18.581 0 0010.064 2.95c12.076 0 18.679-10.004 18.679-18.68a19 19 0 00-.02-.85A13.337 13.337 0 0032 3.079z"/></svg><svg viewBox="0 0 32 19" id="ico_social-vk" xmlns="http://www.w3.org/2000/svg"><path d="M27.54 11.515c1.062 1.036 2.182 2.011 3.134 3.152.421.507.82 1.03 1.124 1.618.431.837.04 1.757-.71 1.807l-4.661-.002c-1.203.1-2.162-.384-2.968-1.206-.646-.658-1.244-1.357-1.864-2.037-.255-.278-.521-.54-.84-.746-.636-.413-1.188-.287-1.552.377-.37.675-.454 1.423-.49 2.175-.05 1.098-.382 1.387-1.485 1.437-2.356.111-4.593-.246-6.67-1.434-1.832-1.048-3.253-2.528-4.49-4.203C3.663 9.192 1.819 5.608.163 1.923c-.373-.83-.1-1.275.815-1.29C2.498.602 4.02.604 5.541.63c.618.009 1.028.364 1.266.947.823 2.024 1.83 3.949 3.094 5.733.336.475.68.95 1.168 1.284.54.37.952.248 1.207-.355.161-.381.232-.793.268-1.202.12-1.407.136-2.811-.075-4.214-.13-.875-.622-1.441-1.496-1.607-.445-.084-.379-.25-.163-.504.375-.439.727-.712 1.43-.712h5.268c.83.164 1.014.536 1.127 1.37l.005 5.853c-.01.323.161 1.282.743 1.496.466.152.773-.22 1.052-.516 1.262-1.339 2.162-2.92 2.966-4.56.357-.72.664-1.468.962-2.215.22-.555.566-.828 1.19-.816l5.072.005c.15 0 .302.002.448.027.854.145 1.088.513.824 1.347-.415 1.31-1.225 2.4-2.016 3.496-.845 1.17-1.75 2.3-2.588 3.477-.77 1.075-.71 1.617.248 2.55z"/></svg></svg>